<svg xmlns="http://www.w3.org/2000/svg" width="578.804" height="224.674" viewBox="0 0 578.804 224.674">
  <g id="Group_5" data-name="Group 5" transform="translate(95.526 684)">
    <path id="Path_12" data-name="Path 12" d="M35.63-7.99a71.716,71.716,0,0,1-8.989-.592,60.773,60.773,0,0,1-8.881-1.776,45.938,45.938,0,0,1-7.536-2.8,8.518,8.518,0,0,1-4.091-3.714,8.269,8.269,0,0,1-.861-4.9A9.366,9.366,0,0,1,7.1-26.345a7.365,7.365,0,0,1,3.983-2.691,8.148,8.148,0,0,1,5.6.7,41.22,41.22,0,0,0,9.258,3.014,47.634,47.634,0,0,0,9.689,1.077q7.105,0,9.958-1.884a5.508,5.508,0,0,0,2.853-4.683A4.754,4.754,0,0,0,46.449-34.8Q44.458-36.3,39.4-37.379L26.8-40.07q-10.335-2.153-15.394-7.536T6.349-61.493A22.212,22.212,0,0,1,8.663-71.666a22.436,22.436,0,0,1,6.567-7.8,31.784,31.784,0,0,1,10.119-5.006,45.046,45.046,0,0,1,13.08-1.776,53.934,53.934,0,0,1,11.357,1.238A33.252,33.252,0,0,1,59.744-81.3,7.739,7.739,0,0,1,63.3-77.749a8.884,8.884,0,0,1,.861,4.683,7.793,7.793,0,0,1-1.669,4.252,6.873,6.873,0,0,1-3.875,2.422,9.305,9.305,0,0,1-5.759-.807A30.1,30.1,0,0,0,45.8-69.3a43.281,43.281,0,0,0-7.589-.7,21.99,21.99,0,0,0-6.782.915,9.1,9.1,0,0,0-4.252,2.637,5.994,5.994,0,0,0-1.453,3.983,4.788,4.788,0,0,0,1.884,3.822Q29.494-57.08,34.554-56l12.488,2.691q10.442,2.261,15.61,7.428t5.167,13.457a22.311,22.311,0,0,1-2.261,10.119,21.779,21.779,0,0,1-6.459,7.7,30.907,30.907,0,0,1-10.119,4.9A47.777,47.777,0,0,1,35.63-7.99Zm52.211-.215a9.032,9.032,0,0,1-7-2.691q-2.476-2.691-2.476-7.751V-52.666q0-5.06,2.476-7.751a9.032,9.032,0,0,1,7-2.691A9.348,9.348,0,0,1,95-60.417q2.53,2.691,2.53,7.751v34.018q0,5.06-2.476,7.751T87.841-8.205Zm0-62.546q-5.06,0-7.8-2.368t-2.745-6.89a8.47,8.47,0,0,1,2.745-6.782q2.745-2.368,7.8-2.368,5.275,0,7.966,2.368A8.554,8.554,0,0,1,98.5-80.01q0,4.521-2.691,6.89T87.841-70.751Zm32.4,81.924a9.463,9.463,0,0,1-7-2.476q-2.476-2.476-2.476-7.213v-55.01q0-4.629,2.422-7.105t6.944-2.476q4.629,0,7.051,2.476t2.422,7.105v6.244l-1.184-5.275a13.908,13.908,0,0,1,6.3-7.8,20.357,20.357,0,0,1,10.927-2.96,22,22,0,0,1,12.111,3.337,22.2,22.2,0,0,1,8.128,9.473A34.492,34.492,0,0,1,168.8-35.657a34.662,34.662,0,0,1-2.907,14.748,22.091,22.091,0,0,1-8.128,9.581A22,22,0,0,1,145.651-7.99a20.551,20.551,0,0,1-10.658-2.8,13.886,13.886,0,0,1-6.351-7.32h1.292V1.483q0,4.737-2.53,7.213T120.245,11.172Zm19.377-33.265a9.084,9.084,0,0,0,5.114-1.453,9.773,9.773,0,0,0,3.5-4.414,19.435,19.435,0,0,0,1.292-7.7q0-7.213-2.8-10.388a9.056,9.056,0,0,0-7.105-3.176,9.614,9.614,0,0,0-5.167,1.4,9.3,9.3,0,0,0-3.553,4.36,19.766,19.766,0,0,0-1.292,7.8q0,7.105,2.8,10.335A9.106,9.106,0,0,0,139.622-22.093Zm49.412-8.5a7.3,7.3,0,0,1-5.383-2.153,7.3,7.3,0,0,1-2.153-5.383,7.125,7.125,0,0,1,2.153-5.329,7.4,7.4,0,0,1,5.383-2.1H210.35a7.4,7.4,0,0,1,5.383,2.1,7.125,7.125,0,0,1,2.153,5.329,7.3,7.3,0,0,1-2.153,5.383A7.3,7.3,0,0,1,210.35-30.6ZM251.473-7.99q-10.335,0-15.233-5.544t-4.9-16.74V-76.349q0-4.737,2.476-7.213a9.463,9.463,0,0,1,7-2.476q4.629,0,7.159,2.476t2.53,7.213V-30.92q0,3.983,1.561,5.813a5.06,5.06,0,0,0,4.037,1.83,7.955,7.955,0,0,0,1.561-.161q.807-.161,1.776-.269a3.061,3.061,0,0,1,2.745,1.4q.915,1.4.915,5.706a8.928,8.928,0,0,1-1.507,5.652,7.235,7.235,0,0,1-4.629,2.422q-.861.108-2.476.323A22.889,22.889,0,0,1,251.473-7.99Zm37.894,0a24.6,24.6,0,0,1-10.819-2.261,18.022,18.022,0,0,1-7.32-6.19,15.753,15.753,0,0,1-2.637-8.989q0-5.813,3.014-9.15t9.689-4.791a86.785,86.785,0,0,1,17.763-1.453h5.921v9.043h-5.921a33.785,33.785,0,0,0-6.944.592,8.3,8.3,0,0,0-4.037,1.83,4.205,4.205,0,0,0-1.292,3.176,5.288,5.288,0,0,0,1.776,4.091,7.347,7.347,0,0,0,5.113,1.615,9.58,9.58,0,0,0,4.79-1.184,9.29,9.29,0,0,0,3.391-3.283,9.156,9.156,0,0,0,1.292-4.9V-42.331q0-3.875-1.992-5.49t-6.836-1.615a32.555,32.555,0,0,0-5.813.592,42.142,42.142,0,0,0-7.213,2.1,7.114,7.114,0,0,1-4.952.323,6.109,6.109,0,0,1-3.176-2.584,7.088,7.088,0,0,1-1.077-3.983,7.392,7.392,0,0,1,1.4-4.091,8.625,8.625,0,0,1,4.145-3.014,47.031,47.031,0,0,1,9.527-2.584,55.036,55.036,0,0,1,8.02-.646q8.828,0,14.587,2.53a17.5,17.5,0,0,1,8.612,7.751q2.853,5.221,2.853,13.4v21.746q0,4.737-2.261,7.213T312.4-8.205q-4.414,0-6.728-2.476t-2.315-7.213v-2.8l.646,1.507a12.568,12.568,0,0,1-2.476,5.921,13.088,13.088,0,0,1-5.06,3.875A17.2,17.2,0,0,1,289.367-7.99Zm54.364-.215a9.463,9.463,0,0,1-7-2.476q-2.476-2.476-2.476-7.213V-76.349q0-4.737,2.476-7.213a9.463,9.463,0,0,1,7-2.476q4.629,0,7.159,2.476t2.53,7.213v23.468H351.7a18.113,18.113,0,0,1,7.374-7.751A21.922,21.922,0,0,1,370-63.323,20.26,20.26,0,0,1,380.441-60.9a14.76,14.76,0,0,1,6.136,7.536A34.9,34.9,0,0,1,388.622-40.5v22.607q0,4.737-2.476,7.213t-7.105,2.476q-4.629,0-7.105-2.476t-2.476-7.213V-39.748q0-4.844-1.669-6.89a5.952,5.952,0,0,0-4.9-2.045A9.014,9.014,0,0,0,356-45.938a10.322,10.322,0,0,0-2.584,7.374v20.669Q353.42-8.205,343.731-8.205Z" transform="translate(94.656 -470.523)"/>
    <g id="Group_2" data-name="Group 2" transform="translate(-95.526 -684)">
      <g id="Group_1" data-name="Group 1">
        <path id="Path_1" data-name="Path 1" d="M372.948,353.674h-8.111l-.405-.406h-4.461l-.406-.405h-2.839l-.406-.406h-2.433l-.405-.406h-2.433l-.405-.406h-2.028l-.405-.406h-2.028l-.406-.406h-1.622l-.406-.406h-1.622l-.405-.406H340.5l-.406-.406h-1.217l-.406-.406H337.26l-.406-.406h-1.217l-.405-.406h-.811l-.406-.406H332.8l-.406-.406h-.811l-.406-.406h-.811l-.405-.406h-.811l-.406-.406h-.811l-.406-.405h-.406l-.406-.406H325.9l-.405-.406h-.406l-.405-.406h-.405l-.406-.406h-.811l-.406-.405h-.406l-.406-.406h0l-.406-.406h-.406l-.406-.406h-.405l-.406-.405h-.406l-.405-.406H318.6l-.405-.405h0l-.406-.406h-.406l-.406-.405h-.406l-.405-.406h0l-.406-.405h-.406l-.406-.406h0l-.406-.406h-.406l-.405-.406h0l-.406-.406h-.406l-.406-.406h0l-.406-.405h0l-.406-.406h-.406l-.405-.405h0l-.406-.406h0l-.405-.406h-.406l-.405-.406h0l-.406-.406h0l-.406-.406h0l-.406-.406h0l-.406-.406h0l-.406-.406h0l-.406-.406h0l-.406-.406h0l-.406-.406h0l-.405-.406h0l-.406-.406h0l-.406-.406h0l-.406-.406h0l-.406-.406h0l-.405-.406h0l-.406-.406h0l-.406-.406h0l-.406-.406h0l-.406-.406v-.405h0l-.405-.406h0l-.406-.406h0l-.406-.406V326.1h0l-.406-.406h0l-.406-.406v-.406h0l-.406-.406h0l-.406-.406v-.406h0l-.405-.406h0l-.406-.405v-.406h0l-.406-.406v-.406h0l-.406-.406h0l-.406-.406v-.405h0l-.406-.406v-.406h0l-.405-.406V318.8h0l-.406-.406v-.406h0l-.406-.405v-.406h0l-.406-.405v-.811h0l-.406-.406v-.406h0l-.405-.406v-.811h0l-.406-.406v-.406h0l-.405-.405V311.9h0l-.406-.406v-.811h0l-.406-.406v-.811h0l-.406-.406v-1.217h0l-.406-.406v-.811h0l-.406-.406v-1.217h0l-.405-.405V302.98h0l-.406-.406v-1.622h0l-.406-.405v-2.028h0l-.406-.405v-2.839h0l-.406-.406V290h0L289,289.6v-7.705l.405-.406h0v-5.272l.406-.405h0v-3.244l.406-.406h0v-2.433l.406-.406h0v-2.028l.406-.406h0v-2.028l.405-.406h0v-1.622l.406-.406h0V260.8l.406-.406h0v-1.622l.406-.406h0v-1.217l.406-.406h0v-1.622l.406-.406h0V253.5l.405-.406h0v-1.217l.406-.406h0v-1.217l.405-.406h0v-1.622l.406-.406h0v-1.217l.406-.406h0v-1.217l.406-.406h0v-1.622l.406-.405h0v-1.217l.405-.406h0v-1.217l.406-.406h0v-1.622l.406-.406h0v-1.622l.406-.406h0v-1.217l.406-.406h0v-1.622l.406-.406h0v-1.622l.405-.406h0v-1.622l.406-.406h0v-1.622l.406-.406h0v-2.028l.406-.406h0v-1.622l.406-.406h0v-2.028l.406-.406h0V216.6l.406-.406h0V213.76l.405-.406h0v-2.028l.406-.406h0v-2.028l.406-.406h0v-2.433l.406-.406h0v-2.433l.406-.406h0v-2.839l.405-.406h0v-2.433l.406-.406h0v-2.839l.406-.406h0v-2.433l.406-.406h0V187.8l.406-.406h0v-2.433l.405-.406h0v-2.433l.406-.406h0V180.1l.406-.406h0v-2.028l.406-.406h0v-1.622l.406-.406h0V173.61l.406-.406h0v-1.217l.406-.405h0v-.406h-.406l-.406-.406h-.406l-.406-.406h0l-.406-.406h-.406l-.405-.406h0l-.406-.406h0l-.406-.406h0l-.406-.406h0l-.406-.406h0l-.405-.405h0l-.406-.406v-.406h0l-.406-.406h0l-.406-.406V165.5h0l-.406-.406v-.811h0l-.405-.406v-.811h0l-.406-.406v-1.217h0l-.406-.406v-4.055l.406-.406h0v-1.217l.406-.406h0v-.811l.405-.406h0v-.406l.406-.406h0l.406-.406h0v-.406l.406-.406h0l.406-.406h0l.405-.406h0l.406-.406h0l.406-.406h0l.406-.406h0l.406-.406h.405l.406-.406h.406l.406-.406h.406l.406-.406h1.217l.405-.406h3.65l.406.406h1.217l.406.406h.406l.406-.406h0l.405-.406h0l.406-.406h0l.406-.406h0v-.406l.406-.406h0l.406-.406h0l.405-.406h0l.406-.406h0l.405-.406h0l.406-.406h0l.406-.406h0l.405-.406h0l.406-.406h0l.406-.406h0l.406-.406h0l.406-.406h0l.406-.406h0l.406-.406h.406l.406-.406h0l.406-.406h0l.405-.406h0l.405-.406h.406l.405-.406h0l.406-.406h.406l.406-.406h0l.406-.406h.406l.406-.406h0l.405-.406h.406l.406-.406h0l.406-.406h.405l.406-.406h.405l.406-.406h.406l.406-.406h.406l.405-.406h.406l.405-.406h.406l.406-.406h.406l.405-.406h.811l.406-.406h.811l.405-.406h.406l.406-.406h.811l.406-.406h.811l.406-.406h1.217l.406-.406h1.217l.406-.406h1.622l.406-.406h1.622l.405-.406h2.839l.406-.406h12.572l.405.406h2.839l.406.406H369.7l.405.406h1.622l.406.406h1.217l.406.406h.811l.405.406h.811l.405.406H377l.406.406h.811l.406.406h.811l.406.406h.406l.405.406h.406l.406.406h.406l.405.406h.406l.405.406h.406l.406.406h.406l.405.406h.406l.406.406h.406l.406.406h.406l.406.406h0l.405.406h.406l.406.406h0l.406.406h.406l.406.406h0l.405.406h.406l.406.406h0l.406.406h0l.405.406h.406l.406.406h0l.405.406h0l.406.406h0l.406.406h0l.406.406h0l.406.406h0l.405.406h0l.406.406h0l.406.406h0l.406.406h0l.406.406h0l.406.406h0l.406.406h0l.406.406h0l.405.406h0l.406.406h.811l.405-.406h.811l.406-.406h3.244l.405.406h.811l.406.406h.405l.406.406h.406l.406.406h.405l.406.406h0l.406.406h0l.405.406h0l.406.406h0l.406.406h0l.405.406h0l.406.406v.406h0l.406.406v.406h0l.406.406v.811h0l.406.406v.811h0l.406.406v4.867l-.406.406h0v.811l-.406.405h0v.406l-.406.406h0v.406l-.406.406h0v.406l-.406.406h0l-.405.406h0l-.406.406h0l-.406.406h0l-.405.405h0l-.406.406h0l-.406.406h0l-.405.406h-.406l-.406.406h0v1.622h0l.406.406v1.622h0l.406.406v1.622h0l.405.406v1.622h0l.406.406v2.433h0l.406.406v2.028h3.244l.406.406h2.839l.406.406h1.217l.405.406h.811l.406.406h.811l.405.406h0l.406.406h0l.406.406v1.217l-.406.406h0l-.406.406h-4.055l-.406-.406h-2.433l-.405-.406h-3.245l-.405-.406h-.406v1.622l-.406.406h0v1.217l-.405.406h0v.406h.811l.406.406h.405l.406.406h0l.406.406h.405l.406.406h0l.406.406h.406l.406.406h0l.406.406h.405l.406.406h0l.406.406h0l.406.406h0l.405.406h0l.406.406h0l.406.406h0l.406.406h0l.406.406v.811l-.406.406h0l-.406.406h0l-.406.406H413.1l-.406-.406h-.405l-.406-.406h-.406l-.406-.406h0l-.406-.406h-.406l-.405-.406h0l-.406-.406h-.406l-.405-.406h0l-.406-.406h-.406l-.405-.406h-.406l-.406-.406h0l-.406-.406H405.8v.406l-.406.406h0v.406l-.406.406h0v.406l-.406.406h0v.406l-.405.406h0v.811h0l.405.406v.811h0l.406.406v.811h0l.406.406v.406h0l.406.406v.811h0l.405.406v1.217h0l.406.406v.406h0l.406.405v.811h0l.406.406v1.217h0l.405.406v.811h0l.406.406v.811h0l.406.406v.811h0l.405.406v.811h0l.406.406v.811h0l.406.406v1.217h0l.405.406v.811h0l.406.406v.811h0l.406.406v1.217h0l.406.406h0l.406-.406h12.166l.406.406h5.272l.406.406h2.839l.406.406h2.839l.405.406h1.622l.406.406h1.622l.406.406h1.217l.405.406h.811l.406.406h1.217l.406.406h.811l.405.405h.406l.406.406h.406l.406.406h.406l.406.406h.405l.406.406h0l.406.406h0l.405.406h0l.406.406h0l.405.406h0l.406.406h0l.406.406v.406h0l.406.406v2.433l-.406.406h0l-.406.406h0v.406l-.406.406h0l-.405.406h0l-.406.406h0l-.405.406h0l-.406.405h0v1.622l-.406.406h0v3.244l-.405.406h0v3.244l-.406.406h0v2.839l-.406.406h0V245.8l-.406.405h0v2.433h0l.406.406h.406l.406.405h0l.405.406h0l.406.406h0l.406.406h0l.405.406h0l.406.406h0l.405.406v.406h0l.406.406v.406h0l.406.406v.406h0l.406.406v.811h0l.406.406v1.622h0l.406.405v4.867l-.406.406h0v1.622l-.406.406h0v.406l-.406.406h0v.811l-.406.405h0v.406l-.406.405h0v.406l-.405.405h0v.406l-.406.405h0v.406l-.405.406h0l-.406.406h0l-.406.406h0l-.405.406h0l-.406.405h0l-.406.406h0l-.406.406h-.406l-.406.406h-.406l-.405.406h-1.217l-.406.406h0v2.028l-.406.405h0v2.028l-.405.406h0v2.433l-.406.406h0v2.028l-.406.405h0v2.433l-.406.406h0v2.433l-.405.406h0v2.433l-.406.406h0v2.028l-.406.406h0v1.217l-.406.406h0v.406l-.406.406h0v.405l-.406.406h0l-.406.405h0l-.405.406h0l-.406.406h0l-.406.406h0l-.405.406h0l-.406.406h-.406l-.406.405h-.405l-.406.406H435l-.406.405h-1.217l-.406.406h-.406l.406.406h0l.406.406v.405h0l.406.406h0l.405.406v.406h0l.406.405v.406h0l.406.406v.406h0l.406.406v.406h0l.406.406v.811h0l.406.406v.405h0l.405.406v.811h0l.406.406v.811h0l.406-.406h0v-.406l.406-.406h0v-.406l.405-.406h0l.406-.406h0v-.405l.406-.406h0l.405-.406h0v-.406l.406-.406h0v-.406l.406-.406h0l.406-.406h0v-.406l.406-.406h0l.406-.405h0V304.2l.406-.406h0l.405-.406h0v-.405l.406-.406h0l.406-.406h0v-.406l.406-.405h0l.405-.406h0l.406-.405h0v-.406l.406-.406h0l.406-.406h0l.406-.406h0l.406-.406h0v-.405l.405-.406h0l.406-.405h0l.406-.406h0l.406-.406h0l.406-.406h0l.406-.406h0l.406-.406h0l.405-.406h0l.406-.406h0l.406-.406h0l.405-.406h0l.406-.406h0l.405-.406h.406l.406-.406h0l.406-.406h0l.406-.406h.406l.406-.406h0l.406-.406h.405l.406-.406h0l.405-.405h.406l.406-.406h.406l.405-.406h.406l.406-.406h.811l.406-.406h.811l.405-.406h2.028l.406-.406H464.2l.406.406h1.217l.406.406h.406l.406.406h0l.406.406h0l.406.406h0l.406.406h0l.406.405h0l.405.406v.406h0l.406.406v.406h0l.406.406v.811h0l.405.406v4.055l-.405.406h0v1.622l-.406.406h0v1.217l-.406.405h0v1.217l-.405.405h0v.811l-.406.406h0v.405l-.406.406h0v.811l-.406.406h0v.811l-.406.406h0v.406l-.406.406h0v.811l-.406.406h0v.406l-.406.406h0v.406l-.406.406h0v.406l-.406.406h0v.406l-.405.405h0v.811l-.406.406h0v.406l-.406.406h0l-.406.406h0v.406l-.406.406h0v.406l-.406.405h0v.406l-.406.405h0v.406l-.406.406h0v.406l-.406.406h0v.406l-.406.406h0l-.405.405h0v.406l-.406.406h0v.406l-.405.406h0l-.406.406h0v.405l-.406.406h0v.406l-.406.406h0l-.405.406h0v.406l-.406.406h0l-.406.406h0v.406l-.406.406h0l-.405.406h0v.406l-.406.405h0l-.406.406h0v.406l-.406.406h0l-.405.406h0v.406l-.406.406h0l-.405.406h0l-.406.406h0l-.406.406h0v.406l-.406.406h0l-.406.406h0l-.406.406h0v.406l-.406.406h0l-.406.406h0l-.405.406h0l-.406.406h0l-.405.406h0l-.406.406h0l-.406.406h0l-.405.405h0v.406l-.406.405h0l-.406.406h-.406l-.406.406h0l-.406.406h0l-.406.406h0l-.405.406h0l-.406.405h-.406l-.406.406h0l-.406.405h-.406l-.405.406h-.406l-.406.405h-.811l-.406.406h-.811l-.406.405h-2.028l-.405.406h-6.083l-.406-.406h-1.217l-.406-.405h-1.217l-.406-.406h-1.217l-.406-.405h-1.217l-.406-.406h-1.622l-.406-.405H420.8l-.406-.406h-4.055l-.406-.405h-4.055l-.406.405H405.8l-.406.406h-2.433l-.406.405h-2.028l-.406.406H398.9l-.406.405h-1.622l-.406.406h-.811l-.406.405h-1.217l-.406.406h-.811l-.405.406H391.6l-.405.406h-.406l-.406.405h-.406l-.405.406h0l-.406.406h0l-.406.406h0l-.406.406h0l-.406.405h0l-.406.406h0l-.405.406h0l-.406.406h0l-.406.406h0l-.406.406h-.406l-.406.406h0l-.406.406h0l-.405.406h0l-.406.406h-.406l-.406.406h-.405l-.406.406h0l-.405.406h-.406l-.406.406h-.811l-.406.406h-.406l-.405.406h-.811l-.405.406h-1.622l-.405.405h-2.433l-.406.406" transform="translate(-289 -129)"/>
        <path id="Path_2" data-name="Path 2" d="M382.487,356.318l.406-.406h1.622l.406-.406h.811l.406-.406h.406l.405-.406h.811l.406-.406h0l.406-.405h.406l.405-.406h0l.406-.406h.406l.406-.406h0l.406-.406h0l.406-.405h0l.405-.406h.406l.406-.406h0l.406-.406h0l.405-.406h0v-.406l.406-.406h0l.406-.406h0l.406-.406h0l.406-.406h0l.406-.406h0V347.4l.406-.406h0l.406-.405h0l.406-.406h0v-.406l.405-.406h0l.406-.406h0v-.405l.406-.406h0l.406-.405h0v-.406l.406-.406h0l.405-.406h0v-.406l.406-.405h0v-.406l.406-.406h0l.406-.406h0V340.1l.406-.406h0v-.405l.406-.406h0l.405-.406h0v-.406l.406-.406h0v-.405l.406-.406h0v-.405l.406-.406h0v-.406l.406-.406h0v-.406l.406-.405h0v-.406l.405-.406h0V333.2l.406-.406h0v-.406l.406-.406h0v-.406l.406-.406h0v-.406l.406-.406h0v-.811l.406-.405h0v-.811l.406-.406h0v-.811l.406-.406h0V325.9l.405-.406h0v-1.622l.406-.406h0v-1.217h0l-.406-.405V320.63h0l-.405-.406h0l-.406.406h0l-.406.406h0l-.406.406h0l-.406.406h0l-.406.405h0l-.406.406h0v.406l-.406.406h0l-.405.406h0l-.406.406h0v.406l-.406.406h0v.406l-.406.406h0v.406l-.406.406h0v.406l-.406.405h0l-.405.406h0l-.406.406h0l-.406.406h-1.622l-.406-.406h0l-.406-.406h0l-.406-.406h0l-.406-.405V325.5l.406-.406h0v-.406l.406-.406h0v-.406l.406-.406h0l.406-.406h0v-.406l.405-.406h0v-.405l.406-.406h0l.406-.406h0v-.406l.406-.406h0l.406-.405h0v-.406l.406-.406h0l.405-.406h-.405l-.406.406h-1.217l-.406.406H397.9l-.406.406h-.406l-.405.405h-.406l-.406.406h-.406l-.406.406h-.406l-.406.406h0l-.406.406h-.406l-.405.405h0l-.406.406h-.406l-.406.406h0l-.405.406h0l-.406.406h0l-.406.406h0l-.406.406h-.406l-.406.406h0l-.405.406h0l-.406.406h0l-.406.406h0l-.406.406h0v.406l-.406.405h0l-.406.406h0l-.405.406h0l-.406.406h0v.406l-.406.405h0l-.406.406h0l-.405.406h0v.406l-.406.406h0l-.405.406h0l-.406.406h0v.406l-.406.406h0v.406l-.406.406h0l-.406.406h0v.406l-.405.405h0v.406l-.406.406h0v.406l-.406.406h0v.405l-.406.406h0v.405l-.406.406h0v.811l-.406.406h0v.405l-.406.406h0v.811l-.405.406h0v.406l-.406.405h0v.811l-.405.406h0l-.406.406h0l-.406.405h-2.433l-.406-.405h0l-.406-.406h0l-.405-.406v-.406h0l-.406-.406v-1.217l.406-.406h0v-.811l.405-.405h0v-.406l.406-.406h0v-.811l.406-.405h0v-.406l.406-.405h0v-.811l.406-.406h0v-.406l.406-.405h0v-.406l.406-.406h0V333.2l.405-.406h0v-.406l.406-.406h0v-.406l.406-.406h0l.406-.406h0v-.406l.405-.406h0l.406-.406h0v-.405l.405-.406h0l.406-.406h0v-.406l.406-.406h0l.406-.405h0v-.406l.406-.406h0l.406-.406h0V324.28h0l-.406-.406v-1.217h0l-.406-.406v-.811h0l-.406-.406v-.811h0l-.406-.405v-.811h0l-.406-.406v-.811h0l-.405-.406v-.406h0l-.406-.406v-.406h0l-.405-.406v-.811h0l-.406-.405v-.406h0l-.406-.406v-.406h0l-.406-.406h0l-.405-.405v-.406h0l-.406-.406V311.3h0L376,310.9h0l-.406-.406v-.406h0l-.406-.406h0l-.406-.406v-.406h0l-.406-.406h0l-.405-.406h0l-.406-.406h0l-.406-.406h0l-.406-.406v-.406h0l-.406-.406h0l-.406-.406h0l-.405-.405h0l-.406-.406h-.406l-.406-.406h0l-.406-.406h0l-.406-.406h0l-.406-.406H368.7l-.406-.406h0l-.406-.406h-.405l-.406-.406h0l-.405-.406h-.406l-.406-.406h-.406l-.406-.406h-.406l-.406-.405h-.406l-.405-.406h-.406l-.406-.406H361.8l-.406-.406h-.811l-.406-.406h-.811l-.406-.406h-2.028l-.406-.406h-8.111l-.406.406h-1.622l-.406.406h-.811l-.405.406h-.811l-.406.406h-.811l-.405.406h-.811l-.406.406h-.405l-.406.405H339.9l-.406.406h0l-.405.406h-.406l-.406.406h-.406l-.406.406h0l-.406.406h-.405l-.406.406h0l-.406.406h0l-.406.406h0l-.406.406h0l-.406.406h-.405l-.406.406h0l-.406.405h-1.622l-.406-.405h0l-.406-.406h0l-.406-.406h0l-.406-.406h0l-.405-.406v-1.622l.405-.406h0l.406-.406h0l.406-.406h0l.406-.405h0l.406-.406h0l.406-.406h0l.406-.406h0l.405-.406h0l.406-.406h.406l.406-.406h0l.405-.406h.406l.406-.406h.406l.406-.406h0l.406-.406h.405l.406-.406h.406l.406-.406h.406l.406-.406h.811l.406-.406h.406l.405-.406h.811l.406-.406h.811l.406-.406h.811l.406-.405h1.622l.406-.406h2.028l.405-.405h6.489l.406.405h2.433l.406.406h1.217l.406.405H361.8l.405.406h.811l.406.406h.811l.406.406h.406l.406.406h.406l.406.406h.406l.405.406h.406l.405.406h.406l.406.406h.405l.406.406h0l.406.406h.406l.406.406h0l.406.406h.406l.405.406h0l.406.406h0l.406.406h.406l.406.406h0l.406.406h0l.405.405h0l.406.406h0l.406.406h0l.406.406h0l.406.406h0l.406.406h0l.406.406h0l.405.406h0l.406.406h0l.406.406v.406h0l.406.406h0l.405.405h0l.406.406v.406h0l.405.406h0l.406.406h0l.406.406v.406h0l.406.406v.406h0l.406.406h0l.406.406v.406h0l.406.406v.406h0l.405.406v.406h0l.406.406v.406h0l.406.405v.406h0l.406.406v.406h0l.406.406v.405h0l.405.406v.811h0l.406.406v.811h0l.405.406v.811h0l.406.406v.811h0l.406.405v.811h0l.406-.406h0l.405-.406h0l.406-.405h0l.406-.406h.406l.406-.406h0l.406-.406h0l.405-.406h.406l.406-.406h0l.406-.406H391l.406-.406h0l.405-.406h.406l.406-.406h0l.406-.406h.405l.406-.406h.406l.406-.406h.406l.406-.405h.811l.406-.406h.811l.406-.406h1.217l.406-.406H405.6l.406.406h.811l.405.406h.406l.406.406h.405l.406.405h.406l.406.406h0l.406.406h0l.406.406h0l.406.406h0l.406.406v.406h0l.406.406h0l.405.406v.811h0l.406.406v1.217h0l.406.406v4.055l-.406.406h0v1.217l-.406.406h0v1.217l-.405.406h0v.811l-.406.406h0v.406l-.406.406h0v.811l-.406.406h0v.406l-.406.406h0v.811l-.406.406h0v.406l-.406.405h0v.406l-.406.406h0v.406l-.406.406h0v.405l-.405.406h0v.405l-.406.406h0v.406l-.406.406h0v.406l-.405.405h0v.406l-.406.406h0l-.406.406h0v.406l-.406.406h0v.405l-.406.406h0l-.406.406h0v.406l-.406.406h0l-.406.405h0v.406h.811l.406-.406h1.622l.405-.405h2.028l.406-.406h2.433l.406-.406h5.272l.406-.406h4.867l.406.406h4.461l.406.406h2.028l.406.406h2.028l.405.405H434.8l.406.406h1.217l.405.405h1.217l.405.406h1.217l.406.406H442.1l.406.406h0l.406-.406h4.055l.406-.406h1.217l.406-.406h.406l.406-.405h.406l.405-.406h0l.406-.405h.406l.406-.406h0l.405-.406h0l.406-.406h0l.406-.406h0l.405-.405h0l.406-.406h0l.406-.406h0l.406-.406h0l.406-.406h0l.406-.406h0v-.405l.405-.406h0l.406-.406h0l.406-.406h0l.406-.406h0v-.405l.406-.406h0l.406-.405h0l.406-.406h0v-.406l.406-.406h0l.406-.406h0v-.405l.406-.406h0l.406-.406h0l.406-.406h0V332.8l.406-.406h0l.406-.406h0v-.406l.406-.406h0v-.406l.405-.406h0l.406-.406h0v-.406l.406-.405h0l.406-.406h0v-.406l.406-.406h0v-.406l.406-.405h0l.406-.406h0v-.406l.406-.406h0V325.5l.406-.406h0v-.406l.406-.406h0v-.406l.406-.406h0l.406-.406h0v-.406l.405-.406h0v-.405l.406-.406h0v-.406l.406-.406h0v-.406l.406-.405h0v-.406l.406-.406h0V318.2l.406-.406h0v-.406l.406-.406h0v-.406l.406-.406h0v-.406l.406-.406h0v-.811l.406-.406h0v-.406l.406-.406h0v-.811l.406-.406h0V311.3l.406-.406h0v-.406l.405-.406h0v-1.217l.406-.406h0v-.811l.406-.406h0v-2.028l.406-.406h0v-2.028h-.406l-.406.406h0l-.406.406h0l-.405.406h0l-.406.406h0v.406l-.406.406h0v.405l-.406.406h0v.406l-.406.406h0v.406l-.406.406h0v.406l-.406.406h0v.406l-.406.406h0l-.406.406h0l-.406.406h0l-.406.406h-1.217l-.406-.406h-.406l-.406-.406h0l-.406-.406v-.406h0l-.406-.406v-.811l.406-.406h0v-.406l.406-.406h0v-.406l.406-.406h0v-.405l.406-.406h0v-.406l.406-.406h0V303.6l.405-.406h0v-.406h0l-.405.406h0l-.406.406h-.406l-.406.406h0l-.406.406h-.406l-.406.406h0l-.406.406h0l-.406.405h0l-.406.406h0l-.406.406h-.406l-.405.406h0l-.406.406h0l-.406.406h0l-.406.406h0v.406l-.406.406h0l-.406.406h0l-.406.406h0l-.406.406h0l-.406.406h0l-.406.406h0v.406l-.406.406h0l-.406.406h0l-.406.406h0l-.406.405h0v.406l-.406.406h0l-.405.406h0l-.406.406h0v.405l-.406.406h0l-.406.406h0l-.406.406h0v.406l-.406.406h0l-.405.406h0v.406l-.406.406h0l-.406.406h0v.406l-.405.406h0l-.406.406h0v.405l-.406.406h0v.406l-.406.406h0l-.405.406h0v.405l-.406.406h0v.406l-.406.406h0l-.406.406h0v.406l-.406.406h0v.406l-.406.406h0v.406l-.405.406h0v.406l-.406.406h0l-.406.405h0v.406l-.406.406h0l-.406.406h-.406l-.405.406H443.32l-.405-.406h0l-.406-.406h0l-.406-.406v-.406h0l-.406-.405V325.9h0l-.406-.406V324.28h0l-.406-.406v-1.217h0l-.405-.406v-1.217h0l-.406-.406v-.406h0l-.406-.405v-.811h0l-.406-.406V318.2h0l-.406-.406v-.811h0l-.406-.406v-.406h0l-.405-.406v-.406h0l-.406-.406h0l-.406-.405v-.406h0l-.406-.406v-.406h0l-.405-.406h0l-.406-.405v-.406h0l-.405-.406h0l-.406-.406H434.8l-.406.406h-3.65l-.406.406H418.176l-.406-.406h-2.839l-.406-.406H412.5l-.406-.406H410.47l-.406-.406h-1.217l-.406-.406h-1.217l-.405-.406h-.811l-.406-.406H405.2l-.406-.406h-.406l-.406-.406h-.405l-.406-.406h0l-.406-.406h0l-.406-.406h0l-.406-.406h0l-.406-.406h0l-.405-.406h0l-.406-.406v-.405h0l-.406-.406V304h0l-.406-.406v-1.217h0l-.406-.406v-2.433h0l-.406-.406V296.3h0l-.405-.406v-2.839h0l-.406-.406v-2.433h0l-.406-.406v-2.433h0l-.406-.406v-2.028h-.406l-.405.405h-.811l-.406.406h-1.217l-.406.405h-1.217l-.406.406H391l-.406.406h-1.622l-.406.406h-2.028l-.406.406H383.7l-.406.406h-3.244l-.406.406H363.832l-.405-.406h-3.65l-.405-.406h-2.028l-.405-.406h-1.622l-.406-.406h-1.622l-.406-.406h-1.217l-.406-.406h-1.217l-.406-.405h-.811l-.406-.406H347.2l-.406-.405h-.811l-.406-.406h-.406l-.405-.406h-.811l-.406-.406h-.406l-.406-.406h-.811l-.406-.405h-.406l-.405-.406h-.406l-.406-.406H339.5l-.405-.406h-.406l-.406-.406h-.406l-.406-.406h-.406l-.405-.406h0l-.406-.406h-.406l-.406-.406h-.406l-.406-.406h0l-.405-.406h-.406l-.406-.406h0l-.406-.406h-.405l-.406-.405h0l-.406-.406h0l-.406-.406h0l-.406-.406h0l-.406-.406h0l-.406-.405v-2.028l.406-.406h0l.406-.406h0l.406-.406h0l.406-.406h1.622l.406.406h.406l.405.406h0l.406.406h.406l.406.406h0l.406.406h.406l.405.406h0l.406.406h.406l.406.406h.406l.406.406h0l.405.405h.406l.406.406h.406l.405.406h.406l.406.406h.406l.405.406h.811l.406.405h.405l.406.406h.405l.406.406h.811l.406.406h.406l.405.406h.811l.406.406h.811l.406.406h1.217l.406.406h1.217l.406.406H354.5l.406.406h2.028l.405.406h2.028l.405.406h2.433l.406.406h4.056l.405.405h10.95l.406-.405h4.055l.406-.406h2.028l.405-.406h2.028l.406-.406h1.622l.406-.406h1.622l.405-.406h.811l.406-.406h1.217l.406-.406h.811l.406-.406h.811l.405-.406h.406l.406-.406h.811l.405-.406h.406l.406-.406h.406l.406-.405h.406l.405-.406h.406l.406-.406h.406l.406-.406h0l.406-.406h.405l.406-.405h0l.406-.406h.406l.406-.406h0l.406-.406h0l.406-.406h.406l.405-.406h0l.406-.406h0l.406-.406h0l.405-.406h0l.406-.406h0v-.406l.406-.406h0l.406-.406h0v-.811h0l-.406.406h-4.867l-.406.405-.405-.405h-.811l-.406-.406h0l-.406-.406V267.5l.406-.406h0l.406-.406h0l.406-.406h.406l.405-.406H405.2l.406-.405h2.839l-.405-.406h-.406l-.406-.406h-.405l-.406-.406h-.406l-.406-.406h-.811l-.406-.406H403.17l-.406-.405h-2.839l-.406-.406h-4.055l-.406.406h-9.733l-.405-.406h-4.055l-.406-.406h-2.839l-.406-.406h-1.622l-.406-.406h-1.622l-.406-.405h-1.622l-.406-.406h-.811l-.406-.406H368.7l-.406-.406h-.811l-.406-.406h-.811l-.406-.406h-.811l-.406-.406h-.406l-.406-.406h-.811l-.406-.406h-.406l-.405-.406H361.4l-.406-.406h-.406l-.406-.406h-.406l-.405-.406h-.406l-.406-.406h-.406l-.406-.406h0l-.406-.406h-.405l-.406-.406h0l-.406-.406h-.406l-.406-.405h0l-.406-.406H354.5l-.406-.406h0l-.405-.406h-.406l-.406-.406h0l-.406-.406h0l-.406-.406h-.405l-.406-.406h0l-.406-.406h0l-.406-.406h0l-.406-.406h0l-.406-.406h0l-.406-.406h0l-.405-.406v-2.028l.405-.406h0l.406-.406h0l.406-.406h0l.406-.406h2.028l.406.406h0l.406.406h.406l.405.406h0l.406.406h0l.406.406h0l.406.406h.406l.406.406h0l.406.406h0l.406.406h.405l.406.406h0l.406.406h.406l.406.406h0l.406.406h.405l.406.406h.406l.406.406h0l.406.406h.406l.405.406h.406l.406.406h.406l.405.406h.406l.406.406h.811l.406.406h.406l.406.406h.811l.405.405h.811l.405.406h.811l.406.406h.811l.406.406h1.217l.406.406h1.217l.406.406h2.028l.405.406h2.028l.405.406h3.244l.406.406h10.544v-.811h0l-.406-.406V254.12h0l-.405-.405v-2.433h0l-.406-.406v-2.433h0l-.406-.406v-3.244h0l-.406-.406v-2.839h0l-.405-.406v-2.433h0L391,238.3h0l-.406-.406h0l-.406-.406h0l-.406-.406h0l-.406-.406h0l-.405-.406v-2.839l.405-.406h0v-.406l.406-.406h0l.406-.406h0l.406-.406h0L391,231h0l.406-.406h0l.405-.406h.406l.406-.406h.406l.405-.406h.406l.406-.406h.406l.406-.406h.406l.406-.406h0l-.406-.406v-.811h0l-.406-.406v-1.217h0l-.406-.406V223.7h0l-.406-.406v-1.217h0l-.406-.406v-.811h0l-.406-.406v-1.217h0l-.405-.406v-1.217h0l-.406-.406v-.406h-.811l-.405.406h-4.867l-.406-.406h0l-.406-.406h0l-.406-.406h0l-.405-.406v-2.028l.405-.406h0v-.406l.406-.406h0l.406-.406h.406l.405-.406h3.65l.406-.406h1.217l.406-.406h.811l.406-.406h.811l.406-.406h.406l.406-.406h.811l.405-.406h.406l.406-.406h0l.406-.406h.406l.405-.406h.406l.406-.406h0l.406-.406h.406l.406-.406h0l.405-.406h.406l.406-.406h0l.406-.406h0v-.406h-1.217l-.405-.406h-1.217l-.406-.406h-.811l-.406-.406h-1.217l-.405-.406h-.811l-.406-.406h-1.217l-.406-.406h-1.217l-.406-.406h-.811L391,201.8h0l-.406.406h0l-.406.406h0l-.406.406h0l-.406.406h0l-.405.406h0l-.406.406h0l-.406.406h0l-.406.406h0l-.406.406h-.406l-.405.406h0l-.406.406h-.406l-.406.406h-.405l-.406.406h-.405l-.406.406h-1.217l-.405.406h-1.217l-.406.406h-6.894l-.406-.406h-1.217l-.405-.406h-.406l-.406-.406h0l-.406-.406h0l-.406-.406v-2.433l.406-.406h0l.406-.406h0l.406-.406h0l.406-.406h2.028l.406.406h6.083l.406-.406h1.217l.406-.406h.405l.406-.406h.406l.406-.406h0l.406-.406h.405l.406-.406h0l.405-.406h0l.406-.406h.406v-.406l.406-.406h0l.405-.406h0l.406-.406h0v-.406l.406-.406h0l.406-.406h0v-.406l.406-.406h0v-.406l.406-.406h0v-1.217h0l-.406-.406v-.406h0l-.406-.406v-.406h0l-.406-.406v-.406h-.406l-.406-.406h-.405l-.406-.406h-.406l-.406-.406h-.405l-.406-.406H383.7l-.406-.406h-.406l-.406-.405h0l-.405-.406h-.406l-.406-.406h-.406l-.406-.406h-.406l-.406-.406h0l-.405-.406h0l-.406-.406h-.405l-.406-.406h0l-.406-.406v-.406h0l-.406-.405v-1.622l.406-.406h0v-.406l.406-.406h0l.406-.406h0l.405-.406h0l.406-.406h0l.405-.406h.406l.406-.406h.406l.406-.406h.811l.405-.406h.811l.406-.406h2.028l.406-.406H391l.406.406h1.217l.406.406h1.217l.406.406h.406l.406.406h.406l.406.406h0l.406.406h0l.405.406h0l.406.406h0l.406.406v.406h0l.406.406v1.622l-.406.406h0v.405l-.406.406h0l-.406.406h0l-.405.406h0l-.406.406h0l-.406.406h-.406l-.406.406h0l-.406.406h-.406l-.406.406h-.406l-.405.406h-.406v.405h0l.406.406v.406h0l.405.406v.406h0l.406.406v1.217h0l.406.406v3.65h.406l.406.406h.811l.406.406h1.217l.406.406h1.217l.406.406h1.217l.406.406h.811l.406.406h1.622l.406.406h.811l.406.406h2.028l.406-.406h0l.405-.406h0v-.406l.406-.406h0v-.406l.406-.406h-2.028l-.405-.406h-.406l-.406-.406V194.91l.406-.406h0l.406-.406h0l.405-.406h2.028l.406.406h.811l.406-.406h0v-1.217l.406-.406h0v-.811h-1.622l-.406-.406h-.406l-.406-.406h0l-.405-.406h0l-.406-.406v-1.217l.406-.406h0l.405-.406h1.622l.406-.406h1.217v-.811h0l-.406-.406v-2.433h0l-.406-.406v-1.622h0l-.406-.406V179.5h0l-.406-.406v-1.622h0l-.406-.406v-2.839h0l-.406-.406v-2.433h0l-.406-.406v-1.217h0l-.406-.406v-1.217h0l-.405-.406v-.406h0l-.406-.406v-.811h0l-.406-.406v-.406h0l-.405-.406v-.406h0l-.406-.406v-.406h0l-.406-.406v-.406h0l-.406-.406h0l-.406-.406v-.406h0l-.406-.406h0l-.406-.406v-.406h0l-.406-.406h0l-.405-.406h0l-.406-.406v-.406h0l-.406-.406h0l-.406-.406h0l-.406-.406v-.406h0l-.406-.406h0l-.405-.406h0l-.406-.406h0l-.406-.406h0l-.406-.406h0l-.406-.406h0l-.406-.406h0l-.405-.406H398.3l-.406-.406h0l-.406-.406h0l-.406-.406h-.405l-.406-.406h0l-.406-.406h0l-.406-.406h-.406l-.406-.406h0l-.406-.406h-.406l-.406-.406h0l-.405-.406h-.406l-.406-.406h-.406l-.405-.406h0l-.406-.406H390.6l-.406-.406h-.406l-.406-.406h-.405l-.406-.406h-.406l-.406-.406h-.406l-.406-.406h-.811l-.406-.406h-.406l-.405-.406h-.811l-.406-.406h-.811l-.406-.406h-.811l-.406-.406h-1.217l-.406-.406h-1.622l-.406-.406h-2.028l-.406-.406h-2.839l-.406-.406h-10.95l-.406.406h-2.433l-.406.406h-2.028l-.406.406h-1.622l-.406.406h-1.217l-.405.406h-.811l-.406.406h-1.217l-.405.406h-.811l-.406.406H347.2l-.406.406h-.406l-.406.406h-.811l-.405.406h-.406l-.405.406h-.406l-.406.406h-.406l-.405.406h-.406l-.406.406h-.406l-.405.406h0l-.406.406H339.9l-.406.406h-.405l-.406.406h0l-.406.406h-.406l-.406.406h0l-.406.406h-.405l-.406.406h0l-.406.406h0l-.406.406h0l-.406.406h-.406l-.405.406h0l-.406.406h0l-.406.406h0l-.406.406h0l-.405.406h0l-.406.406h0l-.406.406h0l-.406.406h0l-.406.406h0l-.406.406h0l-.406.406h0l-.405.406h0l-.406.406h0v.406l-.406.406h0l-.406.406h0v.406l-.406.406h0v.406l-.406.406h0v.406l-.405.406h0l-.406.406h0l-.406.406h0l-.405.406h-1.622l-.406-.406h-.406l-.406-.406h0l-.406-.406h-.406l-.405-.406h-.811l-.406-.406h-2.028l-.406.406H317.6l-.406.406h0l-.406.406h-.406l-.406.406h0l-.406.406h0v.406l-.405.406h0v.406l-.406.406h0v4.055h0l.406.406v.811h0l.405.406v.811h0l.406.406h0l.406.406h0l.406.406h0l.406.406h.406l.405.406h0l.406.406h.406l.406.406h.405l.406.406h.406l.406.406h.406l.406.406h.406l.405.406v.406h0l.406.406v1.622l-.406.406h0v1.217l-.405.406h0v.811l-.406.406h0v1.217l-.406.406h0v1.622l-.406.406h0V187.2l-.406.406h0v2.839l-.406.406h0v2.839l-.406.406h0v2.433l-.405.406h0v2.839l-.406.406h0v2.433l-.406.406h0v2.433l-.406.406h0v2.433l-.405.406h0v2.839l-.406.406h0v2.028l-.406.406h0v2.433l-.406.406h0v2.028l-.406.406h0v2.433l-.406.406h0v2.028l-.405.406h0v2.028l-.406.406h0v1.622l-.406.406h0v2.028l-.405.406h0v1.622l-.406.405h0v2.028l-.406.406h0V237.9l-.405.406h0v1.622l-.406.406h0v1.622l-.406.406h0v1.217l-.406.406h0V245.6l-.406.406h0v1.622l-.406.406h0v1.217l-.406.406h0v1.622l-.406.406h0V252.9l-.405.406h0v1.217l-.406.406h0v1.217l-.405.406h0v1.622l-.406.406h0V259.8l-.406.406h0v1.217l-.405.406h0v1.622l-.406.406h0v1.217l-.406.406h0v1.217l-.406.406h0v1.622l-.406.406h0v1.217l-.406.405h0v2.028l-.406.406h0V274.8l-.405.406h0v2.028l-.406.406h0v2.028l-.406.406h0v2.839l-.406.405h0v4.056l-.405.406h0v12.572h0l.405.405v3.65h0l.406.406v2.433h0l.406.406v1.622h0l.406.406V311.3h0l.405.406v1.217h0l.406.406v1.217h0l.406.405v.811h0l.406.406v1.217h0l.406.406v.406h0l.406.406v.811h0l.406.406v.811h0l.405.406v.406h0l.406.406v.811h0l.406.406v.406h0l.405.406v.406h0l.406.406v.406h0l.405.406v.406h0l.406.406v.406h0l.406.406h0l.406.405v.406h0l.406.406v.406h0l.406.406h0l.406.405v.406h0l.406.406v.406h0l.405.406h0l.406.406h0l.406.406v.406h0l.405.406h0l.406.406h0l.406.406h0l.405.406v.406h0l.406.405h0l.406.406h0l.406.406h0l.406.406h0l.406.406h0l.405.405h0l.406.406h0l.406.405h0l.406.406h0l.405.406h0l.406.406h.406l.406.406h0l.406.405h0l.406.406h0l.406.406h.405l.406.406h0l.406.406h0l.406.406h.406l.406.405h0l.405.406h.406l.406.406h0l.406.406h.405l.406.406h0l.406.405h.405l.406.406h0l.406.405h.406l.406.406h.406l.405.406h.406l.406.406h.406l.406.406h.406l.406.405h.405l.406.406h.406l.406.406h.405l.406.406h.406l.406.406h.811l.405.406h.406l.406.406h.811l.406.406h.811l.406.406h.811l.406.406h.811l.405.406h1.217l.405.406h.811l.406.406H346.8l.406.405h1.217l.406.406h1.217l.406.406h1.622l.406.406H354.1l.406.406h1.622l.406.405h2.028l.406.406h2.028l.406.406h2.028l.405.406h2.839l.405.406h3.244l.406.406h11.761" transform="translate(-297.322 -137.322)" fill="#fff" stroke="#000" stroke-width="1"/>
        <path id="Path_3" data-name="Path 3" d="M571.65,193.516v-.406l.406-.406h0V192.3l.406-.406h0v-.811l.405-.405h0v-1.622h0l-.405-.406v-.811h0l-.406-.406v-.406h0l-.406-.405h0l-.405-.406h0l-.406-.405h0l-.406-.406h-.406l-.406-.406H568v.406h0l.405.406h0l.406.405v.406h0l.406.405v.406h0l.405.406v.811h0l.406.406v.406h0l.406.406v.405h0l.406.406v1.217h0l.406.406v1.217h.405" transform="translate(-454.852 -162.289)" fill="#fff"/>
        <path id="Path_4" data-name="Path 4" d="M430.839,218.328h-1.217l-.406-.406h0l-.405-.406h0l-.406-.406h0l-.406-.406v-2.839l.406-.406h0v-.406l.406-.406h0l.405-.406h0l.406-.406h0l.406-.406h0l.406-.406h0l.405-.406h0l.406-.406h.406l.406-.406h.406l.406-.406h.406l.406-.406h4.867l.406.406h.406l.406.406h0l.406.406h0l.406.406h0l.406.406h0l.406.406h0l.406.406h0l.406.406h0l.406.406v.406h0l.405.406v1.217l-.405.406h0l-.406.406h0l-.406.406h0l-.406.406h-1.622l-.406-.406h-.406l-.406-.406h0l-.406-.406h-.405l-.406-.406h-.811l-.406-.406h0l-.406.406h-.811l-.406.406h0l-.406.406h0l-.406.406h-.406l-.406.406h0v.406l-.406.406h0l-.406.406h0l-.406.406h-.406l-.406.406" transform="translate(-371.629 -176.556)" stroke="#000" stroke-width="2"/>
        <path id="Path_5" data-name="Path 5" d="M536.706,217.111h-.811l-.406-.406h-.406l-.406-.406h0l-.406-.406h0l-.406-.406h0l-.406-.406h0l-.406-.406h-2.028l-.406-.406h-.405l-.406-.406h0l-.406-.406v-.406h0L529,212.65v-1.622l.405-.406h0l.406-.406h0v-.406l.406-.406h.405l.406-.406h3.65l.406.406h.406l.406.406h0l.406.406h0l.406.406h0l.406.406h0l.405.406v.406h0l.406.406h0l.406.406v.406h0l.406.406v2.028l-.406.406h0l-.406.406h0l-.406.406h-.405l-.406.406" transform="translate(-431.668 -176.556)" stroke="#000" stroke-width="2"/>
        <path id="Path_6" data-name="Path 6" d="M540.65,323.25l.406-.406h1.217l.406-.406h2.433l.406-.406h2.839l.406-.406h3.65v-.811h0l-.406-.406V319.6h0l-.406-.405v-1.217h0l-.406-.406v-.811h0l-.406-.406v-.811h0l-.406-.406v-1.217h0l-.406-.406v-.811h0l-.406-.406v-.811h0l-.405-.406v-.811h0l-.406-.406v-.811h0l-.406-.406v-.811h0l-.406-.405v-.811h0l-.405-.405v-.406h0l-.406-.406V305h-.811l-.405.406h0l-.406.406h0l-.406.406h0l-.406.405h0l-.405.406h-.406l-.405.406h0l-.406.405h0l-.406.406h-.406l-.406.406h0l-.406.406h-.406l-.406.405h0l-.406.406h-.406l-.406.406h-.406l-.405.406h-.406l-.406.406h-.405l-.406.406h0l.406.405v1.217h0l.405.406v1.217h0l.406.406v1.217h0l.406.406v1.217h0l.405.406v.811h0l.406.405v1.217h0l.406.406v1.217h0l.406.406v.406h.406" transform="translate(-436.424 -233.623)" fill="#fff"/>
        <path id="Path_7" data-name="Path 7" d="M597.244,367.328l.406-.406h8.922l.405-.406h4.055l.406-.406h2.433l.406-.406h2.433l.406-.406h2.028l.406-.405h1.622l.405-.406h1.217l.405-.405h.811l.405-.406h.811l.406-.406h.406l.406-.406h.405l.406-.406h0v-.406h-.406l-.405-.406h-.406l-.406-.406h-.811l-.406-.406H623.2l-.405-.406h-1.217l-.405-.406h-1.217l-.406-.405h-1.622l-.406-.406h-2.028l-.406-.406h-2.433l-.406-.406h-4.055l-.405-.406H594v.406h0l.406.406v.811h0l.405.405v.811h0l.406.406v.811h0l.406.406v.811h0l.405.406v1.217h0l.405.405v.811h0l.406.406v.811h.405" transform="translate(-470.308 -265.129)" fill="#fff"/>
        <path id="Path_8" data-name="Path 8" d="M553.305,367.517v-.406h0l-.405-.406v-1.217h0l-.406-.405v-.811h0l-.405-.406V362.65h0l-.405-.406v-.811h0l-.406-.406v-.811h0l-.405-.406V359h-2.839l-.406.406h-3.245l-.405.406h-2.433l-.406.406h-1.622l-.405.406h-1.622l-.405.405h-1.217l-.405.406h-.811l-.406.406h-.811l-.405.406h-.406l-.406.406h-.406l-.406.406H531l.405.406h0l.406.406h.811l.406.406h.405l.406.406h.811l.405.406h.811l.405.405h1.217l.406.406h1.622l.406.406h2.028l.406.406H545.6l.406.406h3.244l.406.406h3.65" transform="translate(-432.857 -265.724)" fill="#fff"/>
        <path id="Path_9" data-name="Path 9" d="M569.66,450.888l.406-.406h3.245l.405-.406h2.433l.405-.405h1.217l.405-.406h1.217l.406-.405h.406l.406-.406h.811l.405-.406h0l.405-.406h0v-.406l.406-.406h0v-1.217l.405-.406h0v-1.622l.406-.406h0v-2.433l.406-.406h0V437.91l.406-.406h0v-2.028l.406-.406h0v-2.433l.406-.406h0V429.8l.406-.405h0V426.96l.406-.405h0v-.811h0l-.406-.406h-.406l-.406-.406h0l-.406-.405h0l-.406-.406h0l-.406-.405h0l-.406-.406h0l-.405-.406h0l-.406-.406v-.405h0l-.405-.406h0l-.405-.406v-.811h0l-.406-.406v-.811h0l-.406-.406V415.6h0l-.406-.406v-.406l.406-.406h0v-4.461l.406-.406h0v-1.217l.406-.405h0v-1.217l.405-.406h0v-.811l.405-.406h0v-.405l.406-.406h0v-.406l.405-.405h0l.406-.406h0v-.406l.406-.405h0l.406-.406h0l.406-.406h.406l.406-.406h.406l.406-.406h.811l.405-.406h1.217v-1.217l.406-.406h0v-2.433l.406-.406h0v-2.839l.406-.405h0V389.65l.406-.406h0V386h0l-.406.405h-.811l-.406.406H587.5l-.405.406h-1.622l-.406.406h-2.028l-.405.405H579.8l-.406.406h-3.244l-.406.406h-4.867l-.406.406H554.655l-.406-.406h-4.056l-.406-.406h-3.65l-.406-.406h-2.028l-.405-.405h-2.028l-.406-.406h-1.622l-.406-.406h-1.217l-.406-.406h-.811L536,386h0v2.433h0l.405.406v2.839h0l.406.406v2.839h0l.406.406v2.433h0l.406.405v3.244h0l.406.406h3.65l.406.406H543.3l.405.405h1.217l.406.406h.406l.406.406h.811l.406.405h.406l.406.406h0l.405.406h.406l.406.405h0l.406.406h.406l.406.406h0l.405.406h0l.406.406h0l.406.406v.405h0l.406.406h0l.406.405v.406h0l.405.406h0l.406.405v.811h0l.405.406v1.217h0l.406.406v1.217l-.406.406h0V415.6l-.405.406h0v.811l-.406.406h0v.405l-.405.406h0l-.406.406h0v.406l-.406.406h0l-.406.405h0l-.406.406h0l-.405.406h0v.406l-.406.406h0l-.406.406h0l-.406.406h0l-.406.405h-.406l-.405.406h0l-.406.406h0l-.406.406h0l-.406.405h-.406l-.406.406h0l-.406.405h-.406l-.406.406h0l-.406.406h-.406l-.406.406h0l-.405.406h-.406l-.406.405h-.406l-.406.406h-.405v1.217h0l.405.405v2.839h0l.406.405v2.839h0l.406.406v2.839h0l.406.405v2.839h0l.406.406V444.4h0l.405.406v1.217h0l.406.406v.811h0l.406.406h0l.406.406h.406l.406.406h.406l.406.406h.811l.406.405h1.217l.406.406H550.6l.405.405h2.028l.406.406h2.839l.406.406H569.66" transform="translate(-435.83 -281.774)" fill="#fff"/>
        <path id="Path_10" data-name="Path 10" d="M663.866,450.005l.406-.406h0l.405-.406h.406v-.406l.406-.406h0l.405-.406h0l.405-.405h0v-.406l.406-.406h0v-.406l.406-.405h0v-1.217l.405-.406h0v-4.867h0l-.405-.406v-1.217h0l-.406-.406h0l-.406-.406v-.405h0l-.405-.406h0l-.405-.405h-.406l-.406-.406h-1.216l-.406-.406h-1.217l-.406.406h-.405l-.406.406h0v.405l-.406.406h0v.405h.811l.405.406h1.217l.406.406h.406l.405.406h0l.406.406h0l.405.406v2.028l-.405.405h0l-.406.406h0l-.405.406h0l-.406.406h-2.028l-.406-.406h-.811l-.406-.406H659v4.056h0l.405.405v1.217h0l.406.405v.406h0l.406.406h0l.406.406h.406l.405.406h.811l.405.406h1.217" transform="translate(-508.947 -310.902)" fill="#fff"/>
      </g>
    </g>
  </g>
</svg>
