<svg width="22" height="30" viewBox="0 0 22 30" fill="none" xmlns="http://www.w3.org/2000/svg">
<g clip-path="url(#clip0_32_245)">
<path d="M1.96153 9.13082C5.01659 9.10199 8.07166 9.08442 11.1267 9.1295C12.6779 9.15271 14.2293 9.19103 15.7797 9.25633C16.5314 9.28768 17.2826 9.32594 18.0334 9.37112C18.6997 9.41155 19.3899 9.41506 20.047 9.5396C20.5401 9.63329 21.1445 9.84652 21.2337 10.4237C21.3096 10.9154 21.0011 11.4406 20.62 11.7245C20.0732 12.1311 19.3403 12.1891 18.6855 12.1999C17.8757 12.2132 17.0638 12.1849 16.2539 12.1745L6.11147 12.0426C5.27619 12.0319 4.44056 12.0251 3.60528 12.01C3.05268 12 2.49582 11.9588 1.96362 11.7963C1.50735 11.6571 1.05708 11.4035 0.849909 10.947C0.655496 10.5185 0.776048 9.99585 1.07227 9.64516C1.22532 9.46 1.43165 9.32787 1.66245 9.26723C2.13737 9.14084 1.93619 8.3943 1.45918 8.52112C0.191421 8.85854 -0.432871 10.4982 0.338706 11.5877C1.09379 12.654 2.55718 12.7697 3.74432 12.7856C7.37863 12.8342 11.013 12.8813 14.6473 12.927C15.5628 12.939 16.4784 12.9509 17.3942 12.9627C18.1997 12.973 19.0189 13.0203 19.8152 12.8686C20.5434 12.7298 21.2009 12.3764 21.627 11.7516C22.0009 11.2031 22.1304 10.4789 21.8495 9.8626C21.5618 9.2304 20.8911 8.91619 20.2494 8.79411C19.5116 8.65401 18.7435 8.64065 17.9957 8.59557C16.3582 8.49669 14.7191 8.43437 13.0795 8.39438C9.76348 8.31273 6.44579 8.31959 3.12897 8.34666L1.96136 8.35694C1.46986 8.36169 1.46899 9.13531 1.96136 9.13038L1.96153 9.13082Z" fill="#442011"/>
<path d="M1.87091 12.2878C2.0806 15.2667 2.32805 18.2431 2.5623 21.2203C2.67599 22.6658 2.78795 24.1111 2.89037 25.5575C2.9447 26.325 2.9986 27.1228 3.44583 27.7757C3.85879 28.3782 4.46616 28.8128 5.11041 29.1321C6.47495 29.8073 8.00924 29.9693 9.50917 29.9951C10.3088 30.0089 11.1084 29.9882 11.908 29.9766C12.6982 29.9655 13.4907 29.9698 14.2805 29.9345C15.5106 29.8795 16.8352 29.6947 17.8135 28.8716C19.018 27.8585 18.9819 26.1449 19.1012 24.7008C19.3905 21.1932 19.6801 17.6857 19.97 14.1784C20.0065 13.7383 20.0429 13.298 20.0791 12.8577C20.0964 12.6492 19.891 12.4709 19.6972 12.4709C19.5966 12.473 19.5006 12.5144 19.4294 12.5865C19.3582 12.6586 19.3174 12.7557 19.3153 12.8577L18.475 23.0392C18.4056 23.8771 18.3364 24.715 18.2675 25.5529C18.2098 26.2514 18.1758 27.0052 17.8388 27.6348C17.2926 28.6552 16.0991 28.9896 15.0363 29.1047C14.3772 29.1761 13.7142 29.177 13.0525 29.1864C12.2359 29.198 11.4194 29.2118 10.6028 29.2215C9.17199 29.2383 7.7086 29.2297 6.32965 28.7943C5.70276 28.5962 5.06571 28.3056 4.56154 27.872C4.31229 27.6667 4.10535 27.4137 3.95252 27.1275C3.80417 26.8048 3.71747 26.4565 3.69701 26.1012C3.56378 24.722 3.49201 23.3341 3.38456 21.9527C3.1589 19.0597 2.91892 16.1681 2.70672 13.2743C2.68253 12.9454 2.65889 12.6163 2.63581 12.287C2.60109 11.7931 1.83663 11.7893 1.87204 12.287L1.87091 12.2878Z" fill="#442011"/>
<path d="M8.57042 8.55188C9.0364 7.03339 9.77457 5.60753 10.15 4.05872C10.2264 3.70321 10.2849 3.34401 10.3253 2.98249C10.3381 2.84139 10.3747 2.70357 10.4336 2.57503C10.5092 2.43273 10.6262 2.40654 10.7721 2.36919C11.2067 2.25792 11.5042 2.05928 11.6434 1.60805C11.733 1.31801 11.7997 1.09486 12.0704 0.930239C12.2942 0.789906 12.5626 0.74175 12.8203 0.795678C13.165 0.877768 13.3597 1.21342 13.69 1.33805C14.1216 1.50135 14.6551 1.39562 15.1067 1.39905C15.5952 1.40292 16.083 1.42928 16.5701 1.47815C17.0497 1.52675 17.5259 1.60067 17.9982 1.69647C18.3789 1.77338 18.8908 1.8211 19.2087 2.06957C19.5967 2.37262 19.6115 3.09121 19.4422 3.54332C19.1752 4.25638 18.2602 4.1089 17.6387 4.0015C17.1753 3.92152 16.7118 3.84418 16.2496 3.75822C15.6942 3.65468 15.1326 3.56178 14.5664 3.60089C14.2549 3.62234 14.1204 3.90772 14.2366 4.18282C14.3494 4.4493 14.0906 4.73214 13.8504 4.77468C13.5851 4.82152 13.3551 4.88472 13.2091 5.1374C13.0996 5.32698 13.0839 5.55172 13.0436 5.76319C12.8794 6.62575 12.653 7.53138 12.247 8.31202C12.0182 8.75209 12.6773 9.14365 12.9066 8.70226C13.3598 7.83021 13.629 6.82579 13.8006 5.8596C13.8066 5.75877 13.8253 5.65912 13.8562 5.56306C13.869 5.53722 13.8475 5.54284 13.8346 5.55532C13.86 5.53036 13.9806 5.53168 14.0129 5.5265C14.2548 5.48897 14.4782 5.37265 14.649 5.19515C14.8253 5.01389 14.9434 4.78285 14.9876 4.5324C15.0319 4.28194 15.0002 4.0238 14.8969 3.79188C14.787 3.98571 14.677 4.17968 14.5671 4.37381C15.0951 4.33724 15.6086 4.42109 16.1261 4.51821C16.5827 4.60417 17.0411 4.68028 17.4994 4.75763C18.2719 4.88788 19.2552 5.00952 19.8401 4.34893C20.315 3.8128 20.4118 2.95147 20.2064 2.27945C20.1045 1.91091 19.8756 1.59149 19.5613 1.37901C19.1542 1.11428 18.628 1.03518 18.1619 0.941928C17.1022 0.729083 16.0243 0.622686 14.944 0.624289C14.6842 0.625168 14.4232 0.645823 14.1639 0.641868C13.936 0.638001 13.8358 0.537891 13.6692 0.396475C13.3725 0.136386 12.992 -0.00473597 12.5996 -0.000263053C12.2243 0.000184526 11.8593 0.124729 11.5602 0.354442C11.2612 0.584154 11.0443 0.906471 10.9427 1.2724C10.8884 1.46839 10.8773 1.5402 10.6823 1.59434C10.4837 1.64936 10.2813 1.69023 10.108 1.81099C9.72223 2.08003 9.6153 2.5382 9.56184 2.98179C9.33479 4.86731 8.38538 6.5513 7.83469 8.34569C7.68827 8.82232 8.42548 9.02605 8.57146 8.55153L8.57042 8.55188Z" fill="#442011"/>
<path d="M2.83605 17.6957C7.0306 17.8311 11.2303 17.798 15.4252 17.6859C16.5793 17.6549 17.733 17.6175 18.8864 17.5736C19.3766 17.5552 19.3788 16.7815 18.8864 16.8002C14.6927 16.9584 10.4947 17.0435 6.29799 16.9962C5.14401 16.9833 3.99015 16.9586 2.8364 16.9223C2.34446 16.9064 2.34533 17.68 2.8364 17.6957H2.83605Z" fill="#442011"/>
<path d="M3.30242 25.315C7.25039 25.3601 11.1988 25.3279 15.1472 25.3391C16.2015 25.342 17.2556 25.3489 18.3096 25.3597C18.8016 25.3653 18.8016 24.5916 18.3096 24.5863C14.3617 24.5412 10.4132 24.5734 6.46484 24.5622C5.41056 24.5592 4.35642 24.5523 3.30242 24.5415C2.81049 24.536 2.81049 25.3096 3.30242 25.315Z" fill="#442011"/>
<path d="M10.2974 2.36963C11.287 3.47659 12.4422 4.41917 13.7208 5.16289C13.9105 5.27337 14.082 4.97639 13.8923 4.86591C12.6391 4.13658 11.507 3.21208 10.5376 2.12635C10.3908 1.96173 10.151 2.20545 10.2974 2.36963Z" fill="#442011"/>
<path d="M11.2277 1.90029C12.2124 2.80158 13.2343 3.65817 14.2934 4.47004C14.4674 4.60373 14.6367 4.30542 14.4649 4.17306C13.4302 3.37882 12.4312 2.54014 11.4681 1.65701C11.3064 1.50917 11.0652 1.75158 11.2277 1.90029Z" fill="#442011"/>
<path d="M12.5251 0.356047C13.3569 1.46053 14.119 2.61714 14.8067 3.81895C14.9163 4.0102 15.21 3.83741 15.1 3.64528C14.4125 2.44328 13.6504 1.28665 12.8182 0.182373C12.6875 0.00870081 12.393 0.179826 12.525 0.356047H12.5251Z" fill="#442011"/>
<path d="M10.0384 3.75963C11.2602 4.41402 12.5227 4.98728 13.8179 5.47579C14.0229 5.55313 14.1116 5.2209 13.9083 5.14444C12.6409 4.66557 11.4055 4.10394 10.2099 3.46309C10.0168 3.35946 9.84537 3.65645 10.0384 3.76007V3.75963Z" fill="#442011"/>
<path d="M11.8711 0.894113C12.7717 1.79934 13.6139 2.76227 14.3925 3.77694C14.5263 3.9514 14.7652 3.70662 14.6328 3.53366C13.8544 2.51882 13.0121 1.55588 12.1113 0.65083C11.9559 0.494824 11.7157 0.737667 11.8711 0.894113Z" fill="#442011"/>
</g>
<defs>
<clipPath id="clip0_32_245">
<rect width="22" height="30" fill="white"/>
</clipPath>
</defs>
</svg>
