<svg width="25" height="25" viewBox="0 0 25 25" fill="none" xmlns="http://www.w3.org/2000/svg">
<path d="M22.5 10.125C22.4236 9.8944 22.2866 9.68859 22.1034 9.52914C21.9201 9.3697 21.6973 9.26249 21.4583 9.21875L16.125 8.44791L13.6979 3.60416C13.5855 3.38303 13.4141 3.19732 13.2027 3.06761C12.9913 2.93789 12.7481 2.86923 12.5 2.86923C12.252 2.86923 12.0087 2.93789 11.7973 3.06761C11.5859 3.19732 11.4145 3.38303 11.3021 3.60416L8.91668 8.44791L3.58334 9.21875C3.34403 9.25897 3.12022 9.36374 2.93606 9.52178C2.7519 9.67981 2.61435 9.8851 2.53826 10.1155C2.46216 10.346 2.4504 10.5928 2.50423 10.8294C2.55807 11.0661 2.67546 11.2835 2.84376 11.4583L6.69793 15.2187L5.79167 20.5312C5.73903 20.7826 5.76131 21.044 5.85574 21.2828C5.95017 21.5217 6.11261 21.7276 6.32293 21.875C6.54759 22.0454 6.8222 22.1369 7.10418 22.1354C7.32204 22.1344 7.53645 22.0808 7.72918 21.9792L12.5 19.4688L17.2708 21.9792C17.4912 22.0958 17.7398 22.1483 17.9885 22.1308C18.2372 22.1132 18.476 22.0263 18.6778 21.8798C18.8796 21.7334 19.0363 21.5333 19.13 21.3023C19.2238 21.0712 19.2509 20.8186 19.2083 20.5729L18.3021 15.2604L22.1563 11.4583C22.3275 11.2871 22.4498 11.0731 22.5103 10.8386C22.5707 10.6041 22.5672 10.3577 22.5 10.125Z" fill="#FBC02D"/>
</svg>
